<?xml version="1.0" standalone="no"?>
<!DOCTYPE svg PUBLIC "-//W3C//DTD SVG 20010904//EN"
 "http://www.w3.org/TR/2001/REC-SVG-20010904/DTD/svg10.dtd">
<svg version="1.0" xmlns="http://www.w3.org/2000/svg"
 width="1213.000000pt" height="347.000000pt" viewBox="0 0 1213.000000 347.000000"
 preserveAspectRatio="xMidYMid meet">
<g transform="translate(0.000000,347.000000) scale(0.100000,-0.100000)"
fill="#000000" stroke="none">
<path d="M0 1735 l0 -1735 6065 0 6065 0 0 1735 0 1735 -6065 0 -6065 0 0
-1735z m8950 0 l0 -1185 -4175 0 -4175 0 0 1185 0 1185 4175 0 4175 0 0 -1185z
m2580 0 l0 -1185 -985 0 -985 0 0 1185 0 1185 985 0 985 0 0 -1185z"/>
<path d="M9932 2018 c8 -24 644 -826 653 -824 11 3 655 817 655 829 0 4 -295
7 -656 7 -491 0 -655 -3 -652 -12z"/>
</g>
</svg>
