<svg enable-background="new 0 0 512 512" viewBox="0 0 512 512" xmlns="http://www.w3.org/2000/svg"><path d="m486.716 60.05h-461.432c-13.912 0-25.284 11.377-25.284 25.283v341.333c0 13.906 11.372 25.284 25.284 25.284h461.432c13.9 0 25.284-11.377 25.284-25.284v-341.333c0-13.906-11.384-25.283-25.284-25.283zm6.321 366.616c0 3.426-2.901 6.321-6.321 6.321h-461.432c-3.432 0-6.321-2.895-6.321-6.321v-341.333c0-3.426 2.888-6.321 6.321-6.321h461.432c3.42 0 6.321 2.895 6.321 6.321z"/><path d="m437.172 382.747-139.062-170.659c-1.789-2.213-4.456-3.477-7.294-3.496s-5.518 1.22-7.333 3.413l-87.716 105.245-36.927-42.218c-1.826-2.086-4.507-3.28-7.282-3.236s-5.404 1.308-7.175 3.457l-88.494 107.458c-3.331 4.039-2.755 10.012 1.296 13.343 4.039 3.325 10.012 2.75 13.343-1.296l81.382-98.835 36.902 42.161c1.826 2.092 4.469 3.275 7.244 3.243 2.775-.037 5.398-1.277 7.175-3.413l87.444-104.941 131.793 161.747c3.306 4.064 9.285 4.672 13.343 1.365s4.666-9.286 1.361-13.338z"/><path d="m398.222 123.259c-24.444 0-44.247 19.81-44.247 44.247 0 24.438 19.804 44.247 44.247 44.247 24.444 0 44.247-19.81 44.247-44.247s-19.804-44.247-44.247-44.247zm0 69.531c-13.95 0-25.284-11.34-25.284-25.284s11.333-25.284 25.284-25.284c13.937 0 25.284 11.34 25.284 25.284s-11.346 25.284-25.284 25.284z"/></svg>